<?xml version="1.0" encoding="utf-8"?>
<svg viewBox="0 0 50 50" xmlns="http://www.w3.org/2000/svg" xmlns:bx="https://boxy-svg.com">
  <circle style="fill: rgb(216, 216, 216);" transform="matrix(NaN, NaN, NaN, NaN, NaN, NaN)"/>
  <path d="M 19.237 10 L 30.767 10 L 36.5 15.471 L 13.5 15.471 Z" style="fill: rgb(128, 128, 128);"/>
  <rect x="44.392" y="13.349" width="0.079" height="0.079" style="fill: rgb(216, 216, 216);"/>
  <path d="M 2 15.403 L 48 15.403 L 48 43.365 L 2 43.365 Z M 25 20 C 20.029 20 16 24.029 16 29 C 16 33.971 20.029 38 25 38 C 29.971 38 34 33.971 34 29 C 34 24.029 29.971 20 25 20 Z M 6.082 21.17 L 10.268 21.17 L 10.268 18.247 L 6.082 18.247 Z" style="fill: rgb(128, 128, 128);"/>
  <path style="fill: rgb(239, 195, 128);" transform="matrix(-0.028151, 0.073802, -0.073802, -0.028151, 34.963383, -13.215678)" d="M 410.192 160.635 L 413.808 160.635 L 447.326 103.598 A 103.61 103.61 0 0 1 455.894 107.147 L 439.264 171.179 L 441.821 173.736 L 505.853 157.106 A 103.61 103.61 0 0 1 509.402 165.674 L 452.365 199.192 L 452.365 202.808 L 509.402 236.326 A 103.61 103.61 0 0 1 505.853 244.894 L 441.821 228.264 L 439.264 230.821 L 455.894 294.853 A 103.61 103.61 0 0 1 447.326 298.402 L 413.808 241.365 L 410.192 241.365 L 376.674 298.402 A 103.61 103.61 0 0 1 368.106 294.853 L 384.736 230.821 L 382.179 228.264 L 318.147 244.894 A 103.61 103.61 0 0 1 314.598 236.326 L 371.635 202.808 L 371.635 199.192 L 314.598 165.674 A 103.61 103.61 0 0 1 318.147 157.106 L 382.179 173.736 L 384.736 171.179 L 368.106 107.147 A 103.61 103.61 0 0 1 376.674 103.598 Z M 412 175.781 A 25.219 25.219 0 0 0 412 226.219 A 25.219 25.219 0 0 0 412 175.781" bx:shape="cog 412 201 25.219 103.61 40.365 0.772 8 1@da460e51"/>
  <circle style="fill: rgb(128, 128, 128);" cx="25" cy="29" r="7"/>
</svg>